<mxfile host="Electron" modified="2024-03-29T18:09:04.983Z" agent="Mozilla/5.0 (Windows NT 10.0; Win64; x64) AppleWebKit/537.36 (KHTML, like Gecko) draw.io/24.1.0 Chrome/120.0.6099.109 Electron/28.1.0 Safari/537.36" etag="RTAsLpivmjd5ODIJJfjy" version="24.1.0" type="device">
  <diagram name="Sayfa -1" id="eTv4kM7iS59iWm-X4TId">
    <mxGraphModel dx="2074" dy="1244" grid="1" gridSize="10" guides="1" tooltips="1" connect="1" arrows="1" fold="1" page="1" pageScale="1" pageWidth="3300" pageHeight="4681" math="0" shadow="0">
      <root>
        <mxCell id="0" />
        <mxCell id="1" parent="0" />
        <mxCell id="ZjqKb14VcxuoRW1e8OGh-1" value="&lt;font style=&quot;font-size: 24px;&quot;&gt;Airlines&lt;/font&gt;" style="swimlane;fontStyle=0;childLayout=stackLayout;horizontal=1;startSize=26;fillColor=none;horizontalStack=0;resizeParent=1;resizeParentMax=0;resizeLast=0;collapsible=1;marginBottom=0;whiteSpace=wrap;html=1;" vertex="1" parent="1">
          <mxGeometry x="140" y="40" width="180" height="78" as="geometry" />
        </mxCell>
        <mxCell id="ZjqKb14VcxuoRW1e8OGh-2" value="- AirlineId: Int&lt;span style=&quot;white-space: pre;&quot;&gt;&#x9;&lt;/span&gt;" style="text;strokeColor=none;fillColor=none;align=left;verticalAlign=top;spacingLeft=4;spacingRight=4;overflow=hidden;rotatable=0;points=[[0,0.5],[1,0.5]];portConstraint=eastwest;whiteSpace=wrap;html=1;" vertex="1" parent="ZjqKb14VcxuoRW1e8OGh-1">
          <mxGeometry y="26" width="180" height="26" as="geometry" />
        </mxCell>
        <mxCell id="ZjqKb14VcxuoRW1e8OGh-3" value="- AirlineName: String" style="text;strokeColor=none;fillColor=none;align=left;verticalAlign=top;spacingLeft=4;spacingRight=4;overflow=hidden;rotatable=0;points=[[0,0.5],[1,0.5]];portConstraint=eastwest;whiteSpace=wrap;html=1;" vertex="1" parent="ZjqKb14VcxuoRW1e8OGh-1">
          <mxGeometry y="52" width="180" height="26" as="geometry" />
        </mxCell>
        <mxCell id="ZjqKb14VcxuoRW1e8OGh-5" value="&lt;font style=&quot;font-size: 18px;&quot;&gt;Airline Companies&lt;/font&gt;" style="swimlane;fontStyle=0;childLayout=stackLayout;horizontal=1;startSize=26;fillColor=none;horizontalStack=0;resizeParent=1;resizeParentMax=0;resizeLast=0;collapsible=1;marginBottom=0;whiteSpace=wrap;html=1;" vertex="1" parent="1">
          <mxGeometry x="790" y="160" width="240" height="160" as="geometry" />
        </mxCell>
        <mxCell id="ZjqKb14VcxuoRW1e8OGh-6" value="- CompanyName: Sting" style="text;strokeColor=none;fillColor=none;align=left;verticalAlign=top;spacingLeft=4;spacingRight=4;overflow=hidden;rotatable=0;points=[[0,0.5],[1,0.5]];portConstraint=eastwest;whiteSpace=wrap;html=1;" vertex="1" parent="ZjqKb14VcxuoRW1e8OGh-5">
          <mxGeometry y="26" width="240" height="26" as="geometry" />
        </mxCell>
        <mxCell id="ZjqKb14VcxuoRW1e8OGh-7" value="- CompanyId: Int" style="text;strokeColor=none;fillColor=none;align=left;verticalAlign=top;spacingLeft=4;spacingRight=4;overflow=hidden;rotatable=0;points=[[0,0.5],[1,0.5]];portConstraint=eastwest;whiteSpace=wrap;html=1;" vertex="1" parent="ZjqKb14VcxuoRW1e8OGh-5">
          <mxGeometry y="52" width="240" height="108" as="geometry" />
        </mxCell>
        <mxCell id="ZjqKb14VcxuoRW1e8OGh-10" value="" style="endArrow=open;endFill=1;endSize=12;html=1;rounded=0;entryX=0.5;entryY=0;entryDx=0;entryDy=0;exitX=1;exitY=1.038;exitDx=0;exitDy=0;exitPerimeter=0;" edge="1" parent="1" source="ZjqKb14VcxuoRW1e8OGh-2" target="ZjqKb14VcxuoRW1e8OGh-5">
          <mxGeometry width="160" relative="1" as="geometry">
            <mxPoint x="330" y="90" as="sourcePoint" />
            <mxPoint x="1000" y="90" as="targetPoint" />
            <Array as="points">
              <mxPoint x="910" y="93" />
            </Array>
          </mxGeometry>
        </mxCell>
        <mxCell id="ZjqKb14VcxuoRW1e8OGh-11" value="1..*" style="edgeLabel;html=1;align=center;verticalAlign=middle;resizable=0;points=[];spacing=10;spacingTop=5;" vertex="1" connectable="0" parent="ZjqKb14VcxuoRW1e8OGh-10">
          <mxGeometry x="0.93" y="-1" relative="1" as="geometry">
            <mxPoint x="19" y="2" as="offset" />
          </mxGeometry>
        </mxCell>
        <mxCell id="ZjqKb14VcxuoRW1e8OGh-12" value="0..1" style="text;html=1;align=center;verticalAlign=middle;resizable=0;points=[];autosize=1;strokeColor=none;fillColor=none;" vertex="1" parent="1">
          <mxGeometry x="320" y="64" width="40" height="30" as="geometry" />
        </mxCell>
        <mxCell id="ZjqKb14VcxuoRW1e8OGh-13" value="&lt;font style=&quot;font-size: 18px;&quot;&gt;Planes&lt;/font&gt;" style="swimlane;fontStyle=0;childLayout=stackLayout;horizontal=1;startSize=26;fillColor=none;horizontalStack=0;resizeParent=1;resizeParentMax=0;resizeLast=0;collapsible=1;marginBottom=0;whiteSpace=wrap;html=1;" vertex="1" parent="1">
          <mxGeometry x="150" y="390" width="210" height="170" as="geometry" />
        </mxCell>
        <mxCell id="ZjqKb14VcxuoRW1e8OGh-14" value="-PlaneId: Int" style="text;strokeColor=none;fillColor=none;align=left;verticalAlign=top;spacingLeft=4;spacingRight=4;overflow=hidden;rotatable=0;points=[[0,0.5],[1,0.5]];portConstraint=eastwest;whiteSpace=wrap;html=1;" vertex="1" parent="ZjqKb14VcxuoRW1e8OGh-13">
          <mxGeometry y="26" width="210" height="26" as="geometry" />
        </mxCell>
        <mxCell id="ZjqKb14VcxuoRW1e8OGh-15" value="-PlaneName: String" style="text;strokeColor=none;fillColor=none;align=left;verticalAlign=top;spacingLeft=4;spacingRight=4;overflow=hidden;rotatable=0;points=[[0,0.5],[1,0.5]];portConstraint=eastwest;whiteSpace=wrap;html=1;" vertex="1" parent="ZjqKb14VcxuoRW1e8OGh-13">
          <mxGeometry y="52" width="210" height="26" as="geometry" />
        </mxCell>
        <mxCell id="ZjqKb14VcxuoRW1e8OGh-16" value="+ısReady():Boolean&lt;div&gt;+planeType() : String&lt;/div&gt;&lt;div&gt;&lt;br&gt;&lt;/div&gt;" style="text;strokeColor=none;fillColor=none;align=left;verticalAlign=top;spacingLeft=4;spacingRight=4;overflow=hidden;rotatable=0;points=[[0,0.5],[1,0.5]];portConstraint=eastwest;whiteSpace=wrap;html=1;" vertex="1" parent="ZjqKb14VcxuoRW1e8OGh-13">
          <mxGeometry y="78" width="210" height="92" as="geometry" />
        </mxCell>
        <mxCell id="ZjqKb14VcxuoRW1e8OGh-17" value="" style="endArrow=diamondThin;endFill=0;endSize=24;html=1;rounded=0;entryX=-0.012;entryY=0.63;entryDx=0;entryDy=0;entryPerimeter=0;exitX=0.429;exitY=0;exitDx=0;exitDy=0;exitPerimeter=0;" edge="1" parent="1" source="ZjqKb14VcxuoRW1e8OGh-13" target="ZjqKb14VcxuoRW1e8OGh-7">
          <mxGeometry width="160" relative="1" as="geometry">
            <mxPoint x="240" y="350" as="sourcePoint" />
            <mxPoint x="1130" y="630" as="targetPoint" />
            <Array as="points">
              <mxPoint x="240" y="280" />
            </Array>
          </mxGeometry>
        </mxCell>
        <mxCell id="ZjqKb14VcxuoRW1e8OGh-18" value="1..*" style="edgeLabel;html=1;align=center;verticalAlign=middle;resizable=0;points=[];" vertex="1" connectable="0" parent="ZjqKb14VcxuoRW1e8OGh-17">
          <mxGeometry x="-0.9483" y="-4" relative="1" as="geometry">
            <mxPoint x="11" as="offset" />
          </mxGeometry>
        </mxCell>
        <mxCell id="ZjqKb14VcxuoRW1e8OGh-19" value="1" style="text;html=1;align=center;verticalAlign=middle;resizable=0;points=[];autosize=1;strokeColor=none;fillColor=none;" vertex="1" parent="1">
          <mxGeometry x="740" y="258" width="30" height="30" as="geometry" />
        </mxCell>
        <mxCell id="ZjqKb14VcxuoRW1e8OGh-20" value="&lt;font style=&quot;font-size: 18px;&quot;&gt;Flights&lt;/font&gt;" style="swimlane;fontStyle=0;childLayout=stackLayout;horizontal=1;startSize=26;fillColor=none;horizontalStack=0;resizeParent=1;resizeParentMax=0;resizeLast=0;collapsible=1;marginBottom=0;whiteSpace=wrap;html=1;" vertex="1" parent="1">
          <mxGeometry x="790" y="390" width="230" height="230" as="geometry" />
        </mxCell>
        <mxCell id="ZjqKb14VcxuoRW1e8OGh-21" value="-FlightId: Int" style="text;strokeColor=none;fillColor=none;align=left;verticalAlign=top;spacingLeft=4;spacingRight=4;overflow=hidden;rotatable=0;points=[[0,0.5],[1,0.5]];portConstraint=eastwest;whiteSpace=wrap;html=1;" vertex="1" parent="ZjqKb14VcxuoRW1e8OGh-20">
          <mxGeometry y="26" width="230" height="26" as="geometry" />
        </mxCell>
        <mxCell id="ZjqKb14VcxuoRW1e8OGh-22" value="-departureTıme:Float&lt;div&gt;-arrivalTime: Float&lt;/div&gt;&lt;div&gt;&lt;br&gt;&lt;/div&gt;" style="text;strokeColor=none;fillColor=none;align=left;verticalAlign=top;spacingLeft=4;spacingRight=4;overflow=hidden;rotatable=0;points=[[0,0.5],[1,0.5]];portConstraint=eastwest;whiteSpace=wrap;html=1;" vertex="1" parent="ZjqKb14VcxuoRW1e8OGh-20">
          <mxGeometry y="52" width="230" height="58" as="geometry" />
        </mxCell>
        <mxCell id="ZjqKb14VcxuoRW1e8OGh-23" value="+ airportTakeOff()&lt;div&gt;+ arportLanding()&lt;/div&gt;" style="text;strokeColor=none;fillColor=none;align=left;verticalAlign=top;spacingLeft=4;spacingRight=4;overflow=hidden;rotatable=0;points=[[0,0.5],[1,0.5]];portConstraint=eastwest;whiteSpace=wrap;html=1;" vertex="1" parent="ZjqKb14VcxuoRW1e8OGh-20">
          <mxGeometry y="110" width="230" height="120" as="geometry" />
        </mxCell>
        <mxCell id="ZjqKb14VcxuoRW1e8OGh-24" value="Pilot" style="swimlane;fontStyle=0;childLayout=stackLayout;horizontal=1;startSize=26;fillColor=none;horizontalStack=0;resizeParent=1;resizeParentMax=0;resizeLast=0;collapsible=1;marginBottom=0;whiteSpace=wrap;html=1;" vertex="1" parent="1">
          <mxGeometry x="890" y="740" width="170" height="78" as="geometry" />
        </mxCell>
        <mxCell id="ZjqKb14VcxuoRW1e8OGh-25" value="-pılotName:String" style="text;strokeColor=none;fillColor=none;align=left;verticalAlign=top;spacingLeft=4;spacingRight=4;overflow=hidden;rotatable=0;points=[[0,0.5],[1,0.5]];portConstraint=eastwest;whiteSpace=wrap;html=1;" vertex="1" parent="ZjqKb14VcxuoRW1e8OGh-24">
          <mxGeometry y="26" width="170" height="26" as="geometry" />
        </mxCell>
        <mxCell id="ZjqKb14VcxuoRW1e8OGh-26" value="-experienceLevel: Int" style="text;strokeColor=none;fillColor=none;align=left;verticalAlign=top;spacingLeft=4;spacingRight=4;overflow=hidden;rotatable=0;points=[[0,0.5],[1,0.5]];portConstraint=eastwest;whiteSpace=wrap;html=1;" vertex="1" parent="ZjqKb14VcxuoRW1e8OGh-24">
          <mxGeometry y="52" width="170" height="26" as="geometry" />
        </mxCell>
        <mxCell id="ZjqKb14VcxuoRW1e8OGh-29" value="Co-Pilot" style="swimlane;fontStyle=0;childLayout=stackLayout;horizontal=1;startSize=26;fillColor=none;horizontalStack=0;resizeParent=1;resizeParentMax=0;resizeLast=0;collapsible=1;marginBottom=0;whiteSpace=wrap;html=1;" vertex="1" parent="1">
          <mxGeometry x="690" y="680" width="160" height="110" as="geometry" />
        </mxCell>
        <mxCell id="ZjqKb14VcxuoRW1e8OGh-30" value="-coPılotName:string" style="text;strokeColor=none;fillColor=none;align=left;verticalAlign=top;spacingLeft=4;spacingRight=4;overflow=hidden;rotatable=0;points=[[0,0.5],[1,0.5]];portConstraint=eastwest;whiteSpace=wrap;html=1;" vertex="1" parent="ZjqKb14VcxuoRW1e8OGh-29">
          <mxGeometry y="26" width="160" height="26" as="geometry" />
        </mxCell>
        <mxCell id="ZjqKb14VcxuoRW1e8OGh-31" value="+ field: type" style="text;strokeColor=none;fillColor=none;align=left;verticalAlign=top;spacingLeft=4;spacingRight=4;overflow=hidden;rotatable=0;points=[[0,0.5],[1,0.5]];portConstraint=eastwest;whiteSpace=wrap;html=1;" vertex="1" parent="ZjqKb14VcxuoRW1e8OGh-29">
          <mxGeometry y="52" width="160" height="26" as="geometry" />
        </mxCell>
        <mxCell id="ZjqKb14VcxuoRW1e8OGh-32" value="+ field: type" style="text;strokeColor=none;fillColor=none;align=left;verticalAlign=top;spacingLeft=4;spacingRight=4;overflow=hidden;rotatable=0;points=[[0,0.5],[1,0.5]];portConstraint=eastwest;whiteSpace=wrap;html=1;" vertex="1" parent="ZjqKb14VcxuoRW1e8OGh-29">
          <mxGeometry y="78" width="160" height="32" as="geometry" />
        </mxCell>
        <mxCell id="ZjqKb14VcxuoRW1e8OGh-33" value="" style="endArrow=diamondThin;endFill=1;endSize=24;html=1;rounded=0;entryX=0.748;entryY=1.033;entryDx=0;entryDy=0;entryPerimeter=0;exitX=0.424;exitY=-0.012;exitDx=0;exitDy=0;exitPerimeter=0;" edge="1" parent="1" source="ZjqKb14VcxuoRW1e8OGh-24" target="ZjqKb14VcxuoRW1e8OGh-23">
          <mxGeometry width="160" relative="1" as="geometry">
            <mxPoint x="960" y="730" as="sourcePoint" />
            <mxPoint x="960" y="670" as="targetPoint" />
          </mxGeometry>
        </mxCell>
        <mxCell id="ZjqKb14VcxuoRW1e8OGh-36" value="" style="endArrow=diamondThin;endFill=1;endSize=24;html=1;rounded=0;entryX=0.165;entryY=1.017;entryDx=0;entryDy=0;entryPerimeter=0;exitX=0.85;exitY=-0.006;exitDx=0;exitDy=0;exitPerimeter=0;" edge="1" parent="1" source="ZjqKb14VcxuoRW1e8OGh-29" target="ZjqKb14VcxuoRW1e8OGh-23">
          <mxGeometry width="160" relative="1" as="geometry">
            <mxPoint x="750" y="690" as="sourcePoint" />
            <mxPoint x="910" y="690" as="targetPoint" />
          </mxGeometry>
        </mxCell>
        <mxCell id="ZjqKb14VcxuoRW1e8OGh-37" value="" style="endArrow=open;endFill=1;endSize=12;html=1;rounded=0;entryX=1;entryY=0.5;entryDx=0;entryDy=0;" edge="1" parent="1" target="ZjqKb14VcxuoRW1e8OGh-25">
          <mxGeometry width="160" relative="1" as="geometry">
            <mxPoint x="1030" y="272.5" as="sourcePoint" />
            <mxPoint x="1120" y="780" as="targetPoint" />
            <Array as="points">
              <mxPoint x="1130" y="273" />
              <mxPoint x="1130" y="780" />
            </Array>
          </mxGeometry>
        </mxCell>
        <mxCell id="ZjqKb14VcxuoRW1e8OGh-38" value="1" style="text;html=1;align=center;verticalAlign=middle;resizable=0;points=[];autosize=1;strokeColor=none;fillColor=none;" vertex="1" parent="1">
          <mxGeometry x="1035" y="248" width="30" height="30" as="geometry" />
        </mxCell>
        <mxCell id="ZjqKb14VcxuoRW1e8OGh-39" value="1..*" style="text;html=1;align=center;verticalAlign=middle;resizable=0;points=[];autosize=1;strokeColor=none;fillColor=none;" vertex="1" parent="1">
          <mxGeometry x="1060" y="748" width="40" height="30" as="geometry" />
        </mxCell>
        <mxCell id="ZjqKb14VcxuoRW1e8OGh-40" value="" style="endArrow=open;endFill=1;endSize=12;html=1;rounded=0;exitX=0.533;exitY=1.033;exitDx=0;exitDy=0;exitPerimeter=0;entryX=-0.012;entryY=0.769;entryDx=0;entryDy=0;entryPerimeter=0;" edge="1" parent="1" source="ZjqKb14VcxuoRW1e8OGh-16" target="ZjqKb14VcxuoRW1e8OGh-26">
          <mxGeometry width="160" relative="1" as="geometry">
            <mxPoint x="230" y="720" as="sourcePoint" />
            <mxPoint x="860" y="820" as="targetPoint" />
            <Array as="points">
              <mxPoint x="260" y="810" />
            </Array>
          </mxGeometry>
        </mxCell>
        <mxCell id="ZjqKb14VcxuoRW1e8OGh-41" value="1" style="text;html=1;align=center;verticalAlign=middle;resizable=0;points=[];autosize=1;strokeColor=none;fillColor=none;" vertex="1" parent="1">
          <mxGeometry x="260" y="560" width="30" height="30" as="geometry" />
        </mxCell>
        <mxCell id="ZjqKb14VcxuoRW1e8OGh-42" value="1..*" style="text;html=1;align=center;verticalAlign=middle;resizable=0;points=[];autosize=1;strokeColor=none;fillColor=none;" vertex="1" parent="1">
          <mxGeometry x="830" y="808" width="40" height="30" as="geometry" />
        </mxCell>
        <mxCell id="ZjqKb14VcxuoRW1e8OGh-43" value="" style="endArrow=diamondThin;endFill=0;endSize=24;html=1;rounded=0;exitX=0.5;exitY=0;exitDx=0;exitDy=0;entryX=0.483;entryY=0.991;entryDx=0;entryDy=0;entryPerimeter=0;" edge="1" parent="1" source="ZjqKb14VcxuoRW1e8OGh-20" target="ZjqKb14VcxuoRW1e8OGh-7">
          <mxGeometry width="160" relative="1" as="geometry">
            <mxPoint x="905" y="380" as="sourcePoint" />
            <mxPoint x="905" y="330" as="targetPoint" />
          </mxGeometry>
        </mxCell>
        <mxCell id="ZjqKb14VcxuoRW1e8OGh-44" value="" style="endArrow=open;endFill=1;endSize=12;html=1;rounded=0;entryX=0;entryY=0.69;entryDx=0;entryDy=0;entryPerimeter=0;" edge="1" parent="1" target="ZjqKb14VcxuoRW1e8OGh-22">
          <mxGeometry width="160" relative="1" as="geometry">
            <mxPoint x="360" y="480" as="sourcePoint" />
            <mxPoint x="520" y="480" as="targetPoint" />
          </mxGeometry>
        </mxCell>
        <mxCell id="ZjqKb14VcxuoRW1e8OGh-45" value="1...*" style="text;html=1;align=center;verticalAlign=middle;resizable=0;points=[];autosize=1;strokeColor=none;fillColor=none;" vertex="1" parent="1">
          <mxGeometry x="740" y="458" width="40" height="30" as="geometry" />
        </mxCell>
      </root>
    </mxGraphModel>
  </diagram>
</mxfile>
